<?xml version="1.0" standalone="no"?>
<!DOCTYPE svg PUBLIC "-//W3C//DTD SVG 20010904//EN"
 "http://www.w3.org/TR/2001/REC-SVG-20010904/DTD/svg10.dtd">
<svg version="1.0" xmlns="http://www.w3.org/2000/svg"
 width="378.000000pt" height="378.000000pt" viewBox="0 0 378.000000 378.000000"
 preserveAspectRatio="xMidYMid meet">

<g transform="translate(0.000000,378.000000) scale(0.100000,-0.100000)"
fill="#000000" stroke="none">
<path d="M159 3766 c-77 -27 -143 -105 -154 -179 -3 -23 -5 -802 -3 -1732 3
-1576 4 -1692 20 -1721 22 -41 71 -90 112 -112 29 -16 143 -17 1756 -17 1613
0 1727 1 1756 17 41 22 90 71 112 112 16 29 17 143 17 1756 0 1613 -1 1727
-17 1756 -22 41 -71 90 -112 112 -29 16 -145 17 -1741 19 -1388 2 -1717 0
-1746 -11z m2871 -671 c52 -27 60 -57 60 -225 0 -162 -8 -197 -53 -222 -17
-10 -199 -14 -827 -18 l-805 -5 -57 -28 c-70 -34 -131 -101 -158 -173 -19 -53
-20 -76 -20 -610 l0 -556 34 -34 35 -35 568 3 c556 3 569 3 614 24 66 31 124
87 156 152 21 44 28 73 31 143 l4 89 -35 35 -35 35 -401 0 c-441 0 -445 1
-476 60 -11 22 -15 65 -15 180 0 115 4 158 15 180 32 62 13 60 705 60 694 0
673 2 706 -61 23 -46 16 -756 -9 -840 -76 -258 -256 -437 -516 -516 -50 -15
-141 -17 -913 -20 -944 -4 -900 -7 -933 57 -23 44 -23 1544 0 1675 30 171 98
299 224 426 90 90 162 138 273 182 133 54 158 55 1011 56 686 1 792 -1 817
-14z"/>
</g>
</svg>
