<?xml version="1.0" standalone="no"?>
<!DOCTYPE svg PUBLIC "-//W3C//DTD SVG 20010904//EN"
 "http://www.w3.org/TR/2001/REC-SVG-20010904/DTD/svg10.dtd">
<svg version="1.0" xmlns="http://www.w3.org/2000/svg"
 width="1100.000000pt" height="1100.000000pt" viewBox="0 0 1100.000000 1100.000000"
 preserveAspectRatio="xMidYMid meet">

<g transform="translate(0.000000,1100.000000) scale(0.100000,-0.100000)"
fill="#000000" stroke="none">
<path d="M3120 8949 c-85 -13 -227 -61 -310 -105 -321 -168 -528 -537 -507
-899 15 -238 102 -444 261 -612 127 -134 286 -229 471 -279 93 -25 313 -30
415 -10 340 69 602 294 726 623 74 195 73 460 -2 659 -65 174 -180 329 -328
441 -79 60 -241 137 -342 163 -93 25 -287 34 -384 19z"/>
<path d="M7580 8949 c-82 -13 -191 -49 -283 -95 -240 -120 -421 -341 -498
-608 -27 -91 -37 -305 -19 -412 63 -391 369 -707 763 -788 95 -20 289 -21 377
-2 368 79 651 346 748 705 35 130 37 354 4 473 -99 362 -354 617 -710 709 -91
24 -286 33 -382 18z"/>
<path d="M5339 8040 c-253 -29 -519 -133 -721 -281 -294 -216 -507 -551 -585
-919 -25 -121 -25 -449 0 -570 123 -580 557 -1033 1114 -1164 235 -55 456 -57
681 -6 575 129 1013 579 1139 1170 25 121 25 449 0 570 -128 605 -582 1057
-1184 1179 -117 24 -331 34 -444 21z"/>
<path d="M2269 6937 c-341 -146 -533 -460 -580 -947 -13 -139 -7 -402 12 -490
37 -177 201 -337 378 -370 31 -6 254 -10 533 -10 l480 0 66 59 c149 132 387
267 572 326 60 20 115 29 188 33 56 2 101 7 100 11 -2 3 -29 49 -60 101 -170
283 -258 631 -246 968 3 72 4 132 3 132 -1 0 -28 -11 -59 -25 -123 -54 -208
-70 -386 -70 -188 0 -256 13 -401 75 -104 44 -152 72 -244 140 -102 75 -119
82 -215 87 -73 3 -93 0 -141 -20z"/>
<path d="M8495 6944 c-22 -8 -76 -41 -120 -75 -98 -74 -271 -159 -385 -190
-73 -20 -109 -24 -255 -24 -183 0 -234 9 -380 65 l-70 26 -1 -200 c0 -179 -3
-215 -28 -331 -47 -224 -117 -406 -225 -584 -28 -46 -51 -86 -51 -88 0 -1 34
-3 76 -3 95 0 193 -22 311 -70 172 -71 365 -190 489 -302 l52 -48 489 0 c532
0 553 2 657 58 28 15 79 55 113 89 117 114 153 237 153 527 0 418 -115 762
-323 966 -73 73 -193 149 -279 180 -67 24 -164 25 -223 4z"/>
<path d="M3858 5264 c-256 -55 -565 -275 -751 -535 -76 -107 -189 -327 -242
-473 -116 -318 -176 -787 -155 -1224 12 -247 18 -292 47 -387 95 -303 328
-518 640 -592 74 -17 173 -18 2103 -18 1937 0 2028 1 2104 19 150 35 282 103
398 205 59 52 146 168 185 246 82 163 105 321 105 725 -1 426 -60 785 -182
1089 -154 387 -369 650 -676 825 -183 104 -335 146 -464 128 -134 -19 -215
-58 -375 -182 -174 -134 -413 -251 -624 -305 -178 -46 -284 -59 -476 -58 -194
0 -332 19 -505 68 -230 65 -490 205 -669 358 -76 65 -253 128 -356 126 -22 0
-70 -7 -107 -15z"/>
</g>
</svg>
